<svg xmlns="http://www.w3.org/2000/svg" version="1.1" xmlns:xlink="http://www.w3.org/1999/xlink" width="512" height="512" x="0" y="0" viewBox="0 0 512 512" style="enable-background:new 0 0 512 512" xml:space="preserve" class=""><g><path fill="#97da7c" d="M410.182 217.463c-15.276-36.679-31.978-72.913-43.321-110.993-25.095-84.249-93.512-97.932-93.512-97.932L247.194.389c-50.35 4.455-92.937 46.839-112.199 106.082-12.285 37.786-28.045 74.314-43.321 110.993-11.124 26.711-17.352 56.567-17.352 88.085 0 93.878 55.14 173.121 130.624 198.189 0 0 29.416 5.976 51.053 5.976 90.978 0 174.381-90.145 174.381-204.165.001-31.519-9.074-61.375-20.198-88.086z" opacity="1" data-original="#97da7c"></path><path fill="#77cb7d" d="M420.326 217.463c-15.276-36.679-31.035-73.207-43.321-110.993C356.63 43.803 310.154 0 256 0c-2.957 0-5.898.131-8.806.388 36.003 15.706 65.245 51.632 80.263 97.824 12.285 37.786 28.045 74.314 43.321 110.993 11.124 26.711 17.352 56.567 17.352 88.085 0 114.02-81.34 206.452-181.677 206.452-.48 0-1.026-.001-1.505-.005A161.892 161.892 0 0 0 256 512c100.338 0 181.677-92.431 181.677-206.452 0-31.518-6.227-61.374-17.351-88.085z" opacity="1" data-original="#77cb7d"></path><path fill="#dbf080" d="M256 16.516c-45.185 0-86.524 37.315-105.298 95.065-11.008 33.863-24.855 66.964-38.242 98.976l-5.532 13.258c-10.677 25.617-16.089 53.117-16.089 81.734 0 104.73 74.089 189.935 165.161 189.935.496 0 .991-.003 1.486-.008 0 0 147.048-17.908 147.048-189.928 0-110.007-90.88-276.764-127.531-286.318A83.106 83.106 0 0 0 256 16.516z" opacity="1" data-original="#dbf080" class=""></path><path fill="#b7ea7b" d="M257.486 495.476c90.411-.894 163.675-85.751 163.675-189.928 0-28.617-5.411-56.117-16.081-81.734h-.008l-5.532-13.258c-13.387-32.012-27.234-65.113-38.242-98.98-15.808-48.624-47.664-82.775-84.295-92.346 22.135 18.858 39.856 46.387 50.453 78.982 12.285 37.786 28.045 74.314 43.321 110.993 11.124 26.711 17.352 56.567 17.352 88.085 0 93.899-55.132 173.137-130.643 198.186z" opacity="1" data-original="#b7ea7b"></path><path fill="#d48b64" d="M256 206.452c-54.73 0-99.097 48.064-99.097 107.355 0 45.455 26.076 84.312 62.907 99.971l9.942-1.476s10.149 8.86 26.248 8.86c14.852 0 25.385-8.751 25.385-8.751l10.401 1.538c37.044-15.547 63.311-54.521 63.311-100.141 0-45.594-26.236-84.549-63.246-100.114l-8.294 2.049c0-.002-13.357-9.291-27.557-9.291z" opacity="1" data-original="#d48b64" class=""></path><g fill="#c5805d"><path d="M213.863 341.302c-.516-4.532-4.444-7.839-9.137-7.274a8.252 8.252 0 0 0-7.266 9.137c3.349 29.495 11.398 53.977 22.351 70.612A91.892 91.892 0 0 0 256 421.161c-18.847 0-36.96-34.33-42.137-79.859zM299.661 313.806c0 63.266-23.008 107.355-43.661 107.355 12.647 0 24.666-2.535 35.786-7.214 14.844-22.351 24.391-58.56 24.391-100.141s-9.483-77.763-24.326-100.114A92.135 92.135 0 0 0 256 206.451c20.653.001 43.661 44.089 43.661 107.355z" fill="#c5805d" opacity="1" data-original="#c5805d"></path></g></g></svg>