<svg xmlns="http://www.w3.org/2000/svg" version="1.1" xmlns:xlink="http://www.w3.org/1999/xlink" width="512" height="512" x="0" y="0" viewBox="0 0 512 512" style="enable-background:new 0 0 512 512" xml:space="preserve" class=""><g><path fill="#89326c" d="M162.96 147.141c12.82-66.512 89.781-96.643 132.244-97.518C474.571 45.932 507.327 176.33 505.96 233.135c-.975 40.065-15.926 86.485-56.094 112.991-35.77 23.6-115.143 66.436-200.344 11.221-28.415-18.41-111.667-79.969-86.562-210.206z" opacity="1" data-original="#89326c" class=""></path><path fill="#b54a95" d="M261.649 163.102c-48.152-7.17-245.048 132.721-245.048 185.834 0 53.107 75.309 120.949 167.211 112.854 101.146-8.912 150.675-61.281 157.21-135.531 8.819-100.157-20.158-154.339-79.373-163.157zm199.6 127.086c-5.783-3.602-14.848.521-20.242 9.189-5.395 8.682-5.084 18.623.699 22.225 5.777 3.598 14.848-.527 20.236-9.193 5.399-8.676 5.088-18.623-.693-22.221z" opacity="1" data-original="#b54a95"></path><path fill="#f6ecfa" d="M310.427 193.334c33.588 58.719-3.186 145.1-80.136 189.122-76.957 44.018-177.969 41.893-211.563-16.83-33.584-58.719 1.578-145.1 78.535-189.124 76.953-44.021 179.574-41.89 213.164 16.832z" opacity="1" data-original="#f6ecfa" class=""></path><path fill="#feb600" d="M106.054 204.364c17.008-11.447 97.512-56.824 156.019-11.447 41.152 31.92 9.449 103.42-9.662 127.254-56.177 70.076-132.853 78.402-175.542 57.531-75.594-36.955-29.489-133.848 29.185-173.338z" opacity="1" data-original="#feb600"></path><path fill="#855c00" d="M184.272 196.307c-6.914-2.137-14.586 2.854-17.146 11.15-2.559 8.293.965 16.744 7.881 18.879 6.908 2.131 14.586-2.859 17.145-11.156 2.559-8.293-.97-16.742-7.88-18.873zm-14.039 88.519c4.754-7.258 3.701-16.357-2.348-20.32-6.049-3.961-14.809-1.289-19.563 5.975-4.754 7.26-3.711 16.359 2.344 20.32 6.054 3.963 14.81 1.291 19.567-5.975zm-65.456 32.775c-6.055-3.967-14.809-1.289-19.568 5.969-4.754 7.26-3.701 16.359 2.348 20.326 6.049 3.957 14.809 1.285 19.566-5.979 4.75-7.26 3.701-16.359-2.346-20.316zm78.858 6.51c-6.053-3.963-14.805-1.289-19.568 5.969-4.754 7.266-3.701 16.365 2.354 20.326 6.043 3.957 14.803 1.285 19.557-5.975 4.759-7.259 3.71-16.359-2.343-20.32zm-93.266-41.445c6.908 2.131 14.586-2.863 17.145-11.156 2.561-8.293-.963-16.745-7.873-18.875-6.916-2.135-14.592 2.855-17.152 11.149-2.564 8.296.969 16.747 7.88 18.882zm156.302-31.848c-4.248-5.857-13.387-6.467-20.41-1.369-7.021 5.1-9.271 13.979-5.023 19.834 4.252 5.852 13.387 6.457 20.414 1.363 7.023-5.097 9.271-13.977 5.019-19.828z" opacity="1" data-original="#855c00"></path></g></svg>