<svg xmlns="http://www.w3.org/2000/svg" version="1.1" xmlns:xlink="http://www.w3.org/1999/xlink" width="512" height="512" x="0" y="0" viewBox="0 0 503.894 503.894" style="enable-background:new 0 0 512 512" xml:space="preserve" class=""><g><path d="M253.483 120.441c-72.72 6.416-126.336-47.216-119.936-119.92 72.72-6.416 126.336 47.216 119.936 119.92z" style="" fill="#7fb241" data-original="#7fb241"></path><path d="M256.267 171.097c-6.272-1.568-11.2-6.88-11.952-13.68-3.44-31.152 5.472-61.76 25.056-86.208 19.6-24.448 47.552-39.808 78.688-43.232 8.736-.944 16.576 5.344 17.52 14.064.96 8.72-5.328 16.56-14.048 17.536-22.704 2.496-43.072 13.68-57.36 31.504s-20.768 40.128-18.272 62.832c.96 8.736-5.328 16.576-14.064 17.552-1.92.224-3.792.08-5.568-.368z" style="" fill="#8e6d53" data-original="#8e6d53"></path><path d="M374.075 120.249c-17.344-4.624-35.28-3.664-52.88 2-45.216 14.576-93.296 14.576-138.512 0-17.6-5.664-35.536-6.624-52.88-2-69.248 18.448-102.656 118.624-74.64 223.76s106.848 175.392 176.096 156.944c.08-.016.144-.032.224-.064a78.23 78.23 0 0 1 40.928 0c.08.016.144.032.224.064 69.232 18.448 148.08-51.824 176.096-156.944 28-105.136-5.424-205.312-74.656-223.76z" style="" fill="#e14b4b" data-original="#e14b4b" class=""></path><path d="M448.715 343.993c-28 105.12-106.88 175.36-176.16 156.96h-.16a77.364 77.364 0 0 0-40.96 0h-.16c-26.08 6.88-53.44 1.28-78.88-13.92 135.84-52.48 237.6-184.96 258.88-346.4 43.04 38.56 59.84 119.36 37.44 203.36z" style="" fill="#d03f3f" data-original="#d03f3f" class=""></path></g></svg>